<svg width="20" height="20" viewBox="0 0 20 20" fill="none" xmlns="http://www.w3.org/2000/svg">
<path d="M4.99748 12.1384L3.6308 18.0564C3.58848 18.2356 3.60118 18.4234 3.66725 18.5953C3.73332 18.7671 3.84969 18.9151 4.00115 19.0198C4.15261 19.1245 4.33213 19.1811 4.51625 19.1822C4.70038 19.1833 4.88056 19.1288 5.03325 19.0259L10.0276 15.6964L15.0219 19.0259C15.1782 19.1297 15.3624 19.1831 15.5499 19.1789C15.7374 19.1748 15.9191 19.1134 16.0707 19.0029C16.2222 18.8924 16.3363 18.7382 16.3976 18.5609C16.4588 18.3837 16.4643 18.1919 16.4134 18.0115L14.7358 12.1412L18.8963 8.39701C19.0296 8.27702 19.1247 8.12061 19.17 7.94712C19.2153 7.77362 19.2088 7.59065 19.1512 7.42083C19.0936 7.25102 18.9875 7.1018 18.8461 6.99164C18.7046 6.88148 18.5339 6.81521 18.3552 6.80102L13.126 6.3846L10.8632 1.37558C10.791 1.21429 10.6737 1.07733 10.5255 0.981225C10.3772 0.885122 10.2043 0.833984 10.0276 0.833984C9.8509 0.833984 9.67798 0.885122 9.52971 0.981225C9.38143 1.07733 9.26414 1.21429 9.19199 1.37558L6.92917 6.3846L1.70002 6.8001C1.52433 6.81402 1.35637 6.87826 1.21623 6.98514C1.07609 7.09201 0.969713 7.237 0.909818 7.40275C0.849923 7.56851 0.839048 7.748 0.878496 7.91977C0.917944 8.09155 1.00604 8.24831 1.13225 8.37133L4.99748 12.1384ZM7.61435 8.17045C7.77807 8.15755 7.9353 8.10085 8.06957 8.00628C8.20384 7.91171 8.31019 7.78276 8.37749 7.63295L10.0276 3.98144L11.6777 7.63295C11.745 7.78276 11.8513 7.91171 11.9856 8.00628C12.1199 8.10085 12.2771 8.15755 12.4408 8.17045L16.0841 8.45938L13.0838 11.1597C12.8233 11.3945 12.7197 11.7559 12.8151 12.0935L13.9644 16.1155L10.5376 13.8307C10.3872 13.7298 10.2101 13.6758 10.029 13.6758C9.84782 13.6758 9.67077 13.7298 9.52036 13.8307L5.93948 16.2183L6.90257 12.0485C6.93789 11.8952 6.93315 11.7353 6.88881 11.5843C6.84448 11.4333 6.76203 11.2962 6.64942 11.1863L3.86286 8.46947L7.61435 8.17045Z" fill="#F3CD03"/>
</svg>
