<svg width="23" height="23" viewBox="0 0 23 23" fill="none" xmlns="http://www.w3.org/2000/svg">
<path d="M21.1115 8.41866C21.0539 8.24885 20.9478 8.09964 20.8063 7.98945C20.6648 7.87926 20.4941 7.81292 20.3154 7.79861L15.0862 7.3831L12.8234 2.37409C12.7513 2.21276 12.6341 2.07573 12.4859 1.97955C12.3377 1.88336 12.1648 1.83213 11.9881 1.83203C11.8114 1.83193 11.6385 1.88298 11.4901 1.979C11.3418 2.07502 11.2244 2.21192 11.1522 2.37317L8.88938 7.3831L3.66023 7.79861C3.48454 7.81253 3.31657 7.87677 3.17644 7.98364C3.0363 8.09052 2.92992 8.23551 2.87002 8.40126C2.81013 8.56701 2.79925 8.74651 2.8387 8.91828C2.87815 9.09005 2.96625 9.24682 3.09246 9.36983L6.95677 13.1369L5.59009 19.0549C5.54859 19.234 5.56189 19.4215 5.62826 19.593C5.69463 19.7645 5.81102 19.9121 5.9623 20.0166C6.11359 20.1211 6.2928 20.1777 6.47667 20.1791C6.66054 20.1805 6.84059 20.1266 6.99345 20.0244L11.9878 16.6949L16.9821 20.0244C17.1384 20.1282 17.3226 20.1816 17.5101 20.1774C17.6976 20.1733 17.8794 20.1119 18.0309 20.0014C18.1824 19.8909 18.2965 19.7367 18.3578 19.5595C18.419 19.3822 18.4246 19.1904 18.3736 19.01L16.696 13.1397L20.8565 9.39551C21.129 9.1497 21.2289 8.76629 21.1115 8.41866Z" fill="#F3CD03"/>
</svg>
