<svg width="38" height="35" viewBox="0 0 38 35" fill="none" xmlns="http://www.w3.org/2000/svg">
<path d="M22.7997 29.6371L34.5516 9.2821L37.4595 10.9609L24.0287 34.2238L0.765869 20.793L2.44472 17.8851L22.7997 29.6371ZM23.4443 25.1628C23.2747 25.458 23.047 25.7156 22.775 25.9203C22.503 26.125 22.1924 26.2724 21.8618 26.3536C21.5312 26.4348 21.1876 26.4482 20.8518 26.3929C20.5159 26.3376 20.1947 26.2147 19.9077 26.0318C19.6206 25.8489 19.3736 25.6097 19.1816 25.3286C18.9895 25.0475 18.8565 24.7305 18.7905 24.3965C18.7244 24.0626 18.7268 23.7187 18.7974 23.3857C18.868 23.0528 19.0054 22.7375 19.2012 22.4591L16.6477 17.8599C16.1948 17.8841 15.7438 17.7857 15.3423 17.5749C14.9408 17.3641 14.6036 17.0488 14.3664 16.6623C14.1292 16.2758 14.0008 15.8324 13.9947 15.3789C13.9887 14.9255 14.1052 14.4788 14.3319 14.0861C14.5587 13.6933 14.8872 13.3691 15.283 13.1476C15.6787 12.9262 16.1269 12.8157 16.5803 12.8278C17.0336 12.84 17.4752 12.9743 17.8585 13.2167C18.2419 13.459 18.5526 13.8004 18.758 14.2047L24.0178 14.1165C24.072 13.9995 24.1356 13.8871 24.208 13.7804L19.6702 6.00002C19.1022 6.04293 18.5364 5.89202 18.0653 5.57193C17.5941 5.25183 17.2454 4.78146 17.076 4.23761C16.9067 3.69376 16.9267 3.10857 17.1328 2.57757C17.339 2.04657 17.719 1.60114 18.211 1.314C18.7029 1.02687 19.2777 0.914986 19.8414 0.996632C20.4051 1.07828 20.9245 1.34863 21.3148 1.76353C21.705 2.17844 21.9431 2.7134 21.9901 3.28106C22.0371 3.84872 21.8903 4.41556 21.5736 4.88901L26.1115 12.6694C26.566 12.6353 27.0212 12.7253 27.4287 12.9296C27.8361 13.1339 28.1805 13.445 28.425 13.8297C28.6695 14.2144 28.805 14.6582 28.8171 15.1139C28.8292 15.5695 28.7174 16.0199 28.4936 16.417C28.2698 16.8141 27.9425 17.143 27.5464 17.3686C27.1504 17.5943 26.7006 17.7082 26.2449 17.6983C25.7892 17.6884 25.3447 17.5549 24.9589 17.3122C24.573 17.0696 24.2603 16.7267 24.0541 16.3202L18.7942 16.4084C18.7328 16.5419 18.6592 16.6694 18.5743 16.7893L21.1278 21.3886C21.5808 21.3641 22.032 21.4625 22.4336 21.6732C22.8353 21.884 23.1727 22.1993 23.41 22.5859C23.6472 22.9725 23.7757 23.4161 23.7818 23.8696C23.7878 24.3232 23.6712 24.77 23.4443 25.1628Z" fill="white"/>
</svg>
