<svg width="106" height="89" viewBox="0 0 106 89" fill="none" xmlns="http://www.w3.org/2000/svg">
<path d="M0.864746 75.3076C1.55876 57.9574 5.0288 57.9574 11.2749 75.3076C17.521 92.6578 20.991 92.6578 21.685 75.3076C22.379 57.9574 25.8491 57.9574 32.0952 75.3076C38.3412 92.6578 41.8113 92.6578 42.5053 75.3076C43.1993 57.9574 46.6694 57.9574 52.9154 75.3076C59.1615 92.6578 62.6316 92.6578 63.3256 75.3076C64.0196 57.9574 67.4896 57.9574 73.7357 75.3076C79.9818 92.6578 83.4518 92.6578 84.1459 75.3076C84.8399 57.9574 88.3099 57.9574 94.556 75.3076C100.802 92.6578 104.272 92.6578 104.966 75.3076" stroke="#FE6610" stroke-width="1.25423"/>
<path d="M0.864746 55.2666C1.55876 37.9163 5.0288 37.9163 11.2749 55.2666C17.521 72.6168 20.991 72.6168 21.685 55.2666C22.379 37.9163 25.8491 37.9163 32.0952 55.2666C38.3412 72.6168 41.8113 72.6168 42.5053 55.2666C43.1993 37.9163 46.6694 37.9163 52.9154 55.2666C59.1615 72.6168 62.6316 72.6168 63.3256 55.2666C64.0196 37.9163 67.4896 37.9163 73.7357 55.2666C79.9818 72.6168 83.4518 72.6168 84.1459 55.2666C84.8399 37.9163 88.3099 37.9163 94.556 55.2666C100.802 72.6168 104.272 72.6168 104.966 55.2666" stroke="#FE6610" stroke-width="1.25423"/>
<path d="M0.864746 33.667C1.55876 16.3167 5.0288 16.3167 11.2749 33.667C17.521 51.0172 20.991 51.0172 21.685 33.667C22.379 16.3167 25.8491 16.3167 32.0952 33.667C38.3412 51.0172 41.8113 51.0172 42.5053 33.667C43.1993 16.3167 46.6694 16.3167 52.9154 33.667C59.1615 51.0172 62.6316 51.0172 63.3256 33.667C64.0196 16.3167 67.4896 16.3167 73.7357 33.667C79.9818 51.0172 83.4518 51.0172 84.1459 33.667C84.8399 16.3167 88.3099 16.3167 94.556 33.667C100.802 51.0172 104.272 51.0172 104.966 33.667" stroke="#FE6610" stroke-width="1.25423"/>
<path d="M0.864746 14.1474C1.55876 -3.20279 5.0288 -3.20279 11.2749 14.1474C17.521 31.4977 20.991 31.4977 21.685 14.1474C22.379 -3.20279 25.8491 -3.20279 32.0952 14.1474C38.3412 31.4977 41.8113 31.4977 42.5053 14.1474C43.1993 -3.20279 46.6694 -3.20279 52.9154 14.1474C59.1615 31.4977 62.6316 31.4977 63.3256 14.1474C64.0196 -3.20279 67.4896 -3.20279 73.7357 14.1474C79.9818 31.4977 83.4518 31.4977 84.1459 14.1474C84.8399 -3.20279 88.3099 -3.20279 94.556 14.1474C100.802 31.4977 104.272 31.4977 104.966 14.1474" stroke="#FE6610" stroke-width="1.25423"/>
</svg>
